<?xml version="1.0" encoding="UTF-8" standalone="no"?>
<!DOCTYPE svg PUBLIC "-//W3C//DTD SVG 1.1//EN"
 "http://www.w3.org/Graphics/SVG/1.1/DTD/svg11.dtd">
<!-- Generated by graphviz version 2.44.0 (20200408.0750)
 -->
<!-- Title: dependencies Pages: 1 -->
<svg width="1191pt" height="211pt"
 viewBox="0.00 0.00 1191.00 211.00" xmlns="http://www.w3.org/2000/svg" xmlns:xlink="http://www.w3.org/1999/xlink">
<g id="graph0" class="graph" transform="scale(1 1) rotate(0) translate(4 207)">
<title>dependencies</title>
<polygon fill="white" stroke="transparent" points="-4,4 -4,-207 1187,-207 1187,4 -4,4"/>
<text text-anchor="start" x="570.51" y="-42.4" font-family="sans-serif" font-weight="bold" font-size="14.00">Legend</text>
<polygon fill="#ffffb3" stroke="transparent" points="357.5,-10 357.5,-30 377.5,-30 377.5,-10 357.5,-10"/>
<text text-anchor="start" x="381.13" y="-15.4" font-family="sans-serif" font-size="14.00"> &#160;Declarations</text>
<polygon fill="#8dd3c7" stroke="transparent" points="470.5,-10 470.5,-30 490.5,-30 490.5,-10 470.5,-10"/>
<text text-anchor="start" x="494.23" y="-15.4" font-family="sans-serif" font-size="14.00"> &#160;Module</text>
<polygon fill="#80b1d3" stroke="transparent" points="556.5,-10 556.5,-30 576.5,-30 576.5,-10 556.5,-10"/>
<text text-anchor="start" x="580.28" y="-15.4" font-family="sans-serif" font-size="14.00"> &#160;Bootstrap</text>
<polygon fill="#fdb462" stroke="transparent" points="653.5,-10 653.5,-30 673.5,-30 673.5,-10 653.5,-10"/>
<text text-anchor="start" x="677.17" y="-15.4" font-family="sans-serif" font-size="14.00"> &#160;Providers</text>
<polygon fill="#fb8072" stroke="transparent" points="749.5,-10 749.5,-30 769.5,-30 769.5,-10 749.5,-10"/>
<text text-anchor="start" x="773.23" y="-15.4" font-family="sans-serif" font-size="14.00"> &#160;Exports</text>
<g id="clust1" class="cluster">
<title>cluster_AppModule</title>
<polygon fill="none" stroke="black" stroke-dasharray="1,5" points="8,-70 8,-195 1175,-195 1175,-70 8,-70"/>
</g>
<g id="clust6" class="cluster">
<title>cluster_AppModule_providers</title>
<polygon fill="none" stroke="black" points="1037,-78 1037,-130 1167,-130 1167,-78 1037,-78"/>
</g>
<g id="clust3" class="cluster">
<title>cluster_AppModule_imports</title>
<polygon fill="none" stroke="black" points="16,-78 16,-130 1029,-130 1029,-78 16,-78"/>
</g>
<!-- AuthModule -->
<g id="node1" class="node">
<title>AuthModule</title>
<polygon fill="#8dd3c7" stroke="black" points="1020.55,-122 1017.55,-126 996.55,-126 993.55,-122 933.45,-122 933.45,-86 1020.55,-86 1020.55,-122"/>
<text text-anchor="middle" x="977" y="-99.8" font-family="Times,serif" font-size="14.00">AuthModule</text>
</g>
<!-- AppModule -->
<g id="node9" class="node">
<title>AppModule</title>
<polygon fill="#8dd3c7" stroke="black" points="591.66,-187 588.66,-191 567.66,-191 564.66,-187 508.34,-187 508.34,-151 591.66,-151 591.66,-187"/>
<text text-anchor="middle" x="550" y="-164.8" font-family="Times,serif" font-size="14.00">AppModule</text>
</g>
<!-- AuthModule&#45;&gt;AppModule -->
<g id="edge1" class="edge">
<title>AuthModule&#45;&gt;AppModule</title>
<path fill="none" stroke="black" d="M977,-122.13C977,-142.57 977,-173 977,-173 977,-173 601.72,-173 601.72,-173"/>
<polygon fill="black" stroke="black" points="601.72,-169.5 591.72,-173 601.72,-176.5 601.72,-169.5"/>
</g>
<!-- CommentariesModule -->
<g id="node2" class="node">
<title>CommentariesModule</title>
<polygon fill="#8dd3c7" stroke="black" points="915.7,-122 912.7,-126 891.7,-126 888.7,-122 774.3,-122 774.3,-86 915.7,-86 915.7,-122"/>
<text text-anchor="middle" x="845" y="-99.8" font-family="Times,serif" font-size="14.00">CommentariesModule</text>
</g>
<!-- CommentariesModule&#45;&gt;AppModule -->
<g id="edge2" class="edge">
<title>CommentariesModule&#45;&gt;AppModule</title>
<path fill="none" stroke="black" d="M845,-122.27C845,-140.56 845,-166 845,-166 845,-166 601.95,-166 601.95,-166"/>
<polygon fill="black" stroke="black" points="601.95,-162.5 591.95,-166 601.95,-169.5 601.95,-162.5"/>
</g>
<!-- MyFavoritesModule -->
<g id="node3" class="node">
<title>MyFavoritesModule</title>
<polygon fill="#8dd3c7" stroke="black" points="756.59,-122 753.59,-126 732.59,-126 729.59,-122 625.41,-122 625.41,-86 756.59,-86 756.59,-122"/>
<text text-anchor="middle" x="691" y="-99.8" font-family="Times,serif" font-size="14.00">MyFavoritesModule</text>
</g>
<!-- MyFavoritesModule&#45;&gt;AppModule -->
<g id="edge3" class="edge">
<title>MyFavoritesModule&#45;&gt;AppModule</title>
<path fill="none" stroke="black" d="M691,-122.01C691,-138.05 691,-159 691,-159 691,-159 601.92,-159 601.92,-159"/>
<polygon fill="black" stroke="black" points="601.92,-155.5 591.92,-159 601.92,-162.5 601.92,-155.5"/>
</g>
<!-- MySportsModule -->
<g id="node4" class="node">
<title>MySportsModule</title>
<polygon fill="#8dd3c7" stroke="black" points="607.27,-122 604.27,-126 583.27,-126 580.27,-122 492.73,-122 492.73,-86 607.27,-86 607.27,-122"/>
<text text-anchor="middle" x="550" y="-99.8" font-family="Times,serif" font-size="14.00">MySportsModule</text>
</g>
<!-- MySportsModule&#45;&gt;AppModule -->
<g id="edge4" class="edge">
<title>MySportsModule&#45;&gt;AppModule</title>
<path fill="none" stroke="black" d="M550,-122.11C550,-122.11 550,-140.99 550,-140.99"/>
<polygon fill="black" stroke="black" points="546.5,-140.99 550,-150.99 553.5,-140.99 546.5,-140.99"/>
</g>
<!-- NewsModule -->
<g id="node5" class="node">
<title>NewsModule</title>
<polygon fill="#8dd3c7" stroke="black" points="474.92,-122 471.92,-126 450.92,-126 447.92,-122 383.08,-122 383.08,-86 474.92,-86 474.92,-122"/>
<text text-anchor="middle" x="429" y="-99.8" font-family="Times,serif" font-size="14.00">NewsModule</text>
</g>
<!-- NewsModule&#45;&gt;AppModule -->
<g id="edge5" class="edge">
<title>NewsModule&#45;&gt;AppModule</title>
<path fill="none" stroke="black" d="M429,-122.01C429,-138.05 429,-159 429,-159 429,-159 498.02,-159 498.02,-159"/>
<polygon fill="black" stroke="black" points="498.02,-162.5 508.02,-159 498.02,-155.5 498.02,-162.5"/>
</g>
<!-- PronosticsModule -->
<g id="node6" class="node">
<title>PronosticsModule</title>
<polygon fill="#8dd3c7" stroke="black" points="364.88,-122 361.88,-126 340.88,-126 337.88,-122 247.12,-122 247.12,-86 364.88,-86 364.88,-122"/>
<text text-anchor="middle" x="306" y="-99.8" font-family="Times,serif" font-size="14.00">PronosticsModule</text>
</g>
<!-- PronosticsModule&#45;&gt;AppModule -->
<g id="edge6" class="edge">
<title>PronosticsModule&#45;&gt;AppModule</title>
<path fill="none" stroke="black" d="M306,-122.27C306,-140.56 306,-166 306,-166 306,-166 498.33,-166 498.33,-166"/>
<polygon fill="black" stroke="black" points="498.33,-169.5 508.33,-166 498.33,-162.5 498.33,-169.5"/>
</g>
<!-- SportsModule -->
<g id="node7" class="node">
<title>SportsModule</title>
<polygon fill="#8dd3c7" stroke="black" points="228.83,-122 225.83,-126 204.83,-126 201.83,-122 133.17,-122 133.17,-86 228.83,-86 228.83,-122"/>
<text text-anchor="middle" x="181" y="-99.8" font-family="Times,serif" font-size="14.00">SportsModule</text>
</g>
<!-- SportsModule&#45;&gt;AppModule -->
<g id="edge7" class="edge">
<title>SportsModule&#45;&gt;AppModule</title>
<path fill="none" stroke="black" d="M181,-122.13C181,-142.57 181,-173 181,-173 181,-173 498.03,-173 498.03,-173"/>
<polygon fill="black" stroke="black" points="498.03,-176.5 508.03,-173 498.03,-169.5 498.03,-176.5"/>
</g>
<!-- UsersModule -->
<g id="node8" class="node">
<title>UsersModule</title>
<polygon fill="#8dd3c7" stroke="black" points="115.92,-122 112.92,-126 91.92,-126 88.92,-122 24.08,-122 24.08,-86 115.92,-86 115.92,-122"/>
<text text-anchor="middle" x="70" y="-99.8" font-family="Times,serif" font-size="14.00">UsersModule</text>
</g>
<!-- UsersModule&#45;&gt;AppModule -->
<g id="edge8" class="edge">
<title>UsersModule&#45;&gt;AppModule</title>
<path fill="none" stroke="black" d="M70,-122.01C70,-144.49 70,-180 70,-180 70,-180 498.24,-180 498.24,-180"/>
<polygon fill="black" stroke="black" points="498.24,-183.5 508.24,-180 498.24,-176.5 498.24,-183.5"/>
</g>
<!-- AppService -->
<g id="node10" class="node">
<title>AppService</title>
<ellipse fill="#fdb462" stroke="black" cx="1102" cy="-104" rx="56.74" ry="18"/>
<text text-anchor="middle" x="1102" y="-99.8" font-family="Times,serif" font-size="14.00">AppService</text>
</g>
<!-- AppService&#45;&gt;AppModule -->
<g id="edge9" class="edge">
<title>AppService&#45;&gt;AppModule</title>
<path fill="none" stroke="black" d="M1102,-122.01C1102,-144.49 1102,-180 1102,-180 1102,-180 601.94,-180 601.94,-180"/>
<polygon fill="black" stroke="black" points="601.94,-176.5 591.94,-180 601.94,-183.5 601.94,-176.5"/>
</g>
</g>
</svg>
