<?xml version="1.0" encoding="UTF-8" standalone="no"?>
<!DOCTYPE svg PUBLIC "-//W3C//DTD SVG 1.1//EN"
 "http://www.w3.org/Graphics/SVG/1.1/DTD/svg11.dtd">
<!-- Generated by graphviz version 2.44.0 (20200408.0750)
 -->
<!-- Title: dependencies Pages: 1 -->
<svg width="922pt" height="211pt"
 viewBox="0.00 0.00 922.00 211.00" xmlns="http://www.w3.org/2000/svg" xmlns:xlink="http://www.w3.org/1999/xlink">
<g id="graph0" class="graph" transform="scale(1 1) rotate(0) translate(4 207)">
<title>dependencies</title>
<polygon fill="white" stroke="transparent" points="-4,4 -4,-207 918,-207 918,4 -4,4"/>
<text text-anchor="start" x="436.01" y="-42.4" font-family="sans-serif" font-weight="bold" font-size="14.00">Legend</text>
<polygon fill="#ffffb3" stroke="transparent" points="223,-10 223,-30 243,-30 243,-10 223,-10"/>
<text text-anchor="start" x="246.63" y="-15.4" font-family="sans-serif" font-size="14.00"> &#160;Declarations</text>
<polygon fill="#8dd3c7" stroke="transparent" points="336,-10 336,-30 356,-30 356,-10 336,-10"/>
<text text-anchor="start" x="359.73" y="-15.4" font-family="sans-serif" font-size="14.00"> &#160;Module</text>
<polygon fill="#80b1d3" stroke="transparent" points="422,-10 422,-30 442,-30 442,-10 422,-10"/>
<text text-anchor="start" x="445.78" y="-15.4" font-family="sans-serif" font-size="14.00"> &#160;Bootstrap</text>
<polygon fill="#fdb462" stroke="transparent" points="519,-10 519,-30 539,-30 539,-10 519,-10"/>
<text text-anchor="start" x="542.67" y="-15.4" font-family="sans-serif" font-size="14.00"> &#160;Providers</text>
<polygon fill="#fb8072" stroke="transparent" points="615,-10 615,-30 635,-30 635,-10 615,-10"/>
<text text-anchor="start" x="638.73" y="-15.4" font-family="sans-serif" font-size="14.00"> &#160;Exports</text>
<g id="clust1" class="cluster">
<title>cluster_AppModule</title>
<polygon fill="none" stroke="black" stroke-dasharray="1,5" points="8,-70 8,-195 906,-195 906,-70 8,-70"/>
</g>
<g id="clust3" class="cluster">
<title>cluster_AppModule_imports</title>
<polygon fill="none" stroke="black" points="154,-78 154,-130 898,-130 898,-78 154,-78"/>
</g>
<g id="clust6" class="cluster">
<title>cluster_AppModule_providers</title>
<polygon fill="none" stroke="black" points="16,-78 16,-130 146,-130 146,-78 16,-78"/>
</g>
<!-- AuthModule -->
<g id="node1" class="node">
<title>AuthModule</title>
<polygon fill="#8dd3c7" stroke="black" points="889.55,-122 886.55,-126 865.55,-126 862.55,-122 802.45,-122 802.45,-86 889.55,-86 889.55,-122"/>
<text text-anchor="middle" x="846" y="-99.8" font-family="Times,serif" font-size="14.00">AuthModule</text>
</g>
<!-- AppModule -->
<g id="node7" class="node">
<title>AppModule</title>
<polygon fill="#8dd3c7" stroke="black" points="485.66,-187 482.66,-191 461.66,-191 458.66,-187 402.34,-187 402.34,-151 485.66,-151 485.66,-187"/>
<text text-anchor="middle" x="444" y="-164.8" font-family="Times,serif" font-size="14.00">AppModule</text>
</g>
<!-- AuthModule&#45;&gt;AppModule -->
<g id="edge1" class="edge">
<title>AuthModule&#45;&gt;AppModule</title>
<path fill="none" stroke="black" d="M846,-122.29C846,-144.21 846,-178 846,-178 846,-178 495.88,-178 495.88,-178"/>
<polygon fill="black" stroke="black" points="495.88,-174.5 485.88,-178 495.88,-181.5 495.88,-174.5"/>
</g>
<!-- MyFavoritesModule -->
<g id="node2" class="node">
<title>MyFavoritesModule</title>
<polygon fill="#8dd3c7" stroke="black" points="784.59,-122 781.59,-126 760.59,-126 757.59,-122 653.41,-122 653.41,-86 784.59,-86 784.59,-122"/>
<text text-anchor="middle" x="719" y="-99.8" font-family="Times,serif" font-size="14.00">MyFavoritesModule</text>
</g>
<!-- MyFavoritesModule&#45;&gt;AppModule -->
<g id="edge2" class="edge">
<title>MyFavoritesModule&#45;&gt;AppModule</title>
<path fill="none" stroke="black" d="M719,-122.11C719,-141.34 719,-169 719,-169 719,-169 495.77,-169 495.77,-169"/>
<polygon fill="black" stroke="black" points="495.77,-165.5 485.77,-169 495.77,-172.5 495.77,-165.5"/>
</g>
<!-- MySportsModule -->
<g id="node3" class="node">
<title>MySportsModule</title>
<polygon fill="#8dd3c7" stroke="black" points="635.27,-122 632.27,-126 611.27,-126 608.27,-122 520.73,-122 520.73,-86 635.27,-86 635.27,-122"/>
<text text-anchor="middle" x="578" y="-99.8" font-family="Times,serif" font-size="14.00">MySportsModule</text>
</g>
<!-- MySportsModule&#45;&gt;AppModule -->
<g id="edge3" class="edge">
<title>MySportsModule&#45;&gt;AppModule</title>
<path fill="none" stroke="black" d="M578,-122.03C578,-138.4 578,-160 578,-160 578,-160 495.66,-160 495.66,-160"/>
<polygon fill="black" stroke="black" points="495.66,-156.5 485.66,-160 495.66,-163.5 495.66,-156.5"/>
</g>
<!-- PronosticsModule -->
<g id="node4" class="node">
<title>PronosticsModule</title>
<polygon fill="#8dd3c7" stroke="black" points="502.88,-122 499.88,-126 478.88,-126 475.88,-122 385.12,-122 385.12,-86 502.88,-86 502.88,-122"/>
<text text-anchor="middle" x="444" y="-99.8" font-family="Times,serif" font-size="14.00">PronosticsModule</text>
</g>
<!-- PronosticsModule&#45;&gt;AppModule -->
<g id="edge4" class="edge">
<title>PronosticsModule&#45;&gt;AppModule</title>
<path fill="none" stroke="black" d="M444,-122.11C444,-122.11 444,-140.99 444,-140.99"/>
<polygon fill="black" stroke="black" points="440.5,-140.99 444,-150.99 447.5,-140.99 440.5,-140.99"/>
</g>
<!-- SportsModule -->
<g id="node5" class="node">
<title>SportsModule</title>
<polygon fill="#8dd3c7" stroke="black" points="366.83,-122 363.83,-126 342.83,-126 339.83,-122 271.17,-122 271.17,-86 366.83,-86 366.83,-122"/>
<text text-anchor="middle" x="319" y="-99.8" font-family="Times,serif" font-size="14.00">SportsModule</text>
</g>
<!-- SportsModule&#45;&gt;AppModule -->
<g id="edge5" class="edge">
<title>SportsModule&#45;&gt;AppModule</title>
<path fill="none" stroke="black" d="M319,-122.03C319,-138.4 319,-160 319,-160 319,-160 392.03,-160 392.03,-160"/>
<polygon fill="black" stroke="black" points="392.03,-163.5 402.03,-160 392.03,-156.5 392.03,-163.5"/>
</g>
<!-- UsersModule -->
<g id="node6" class="node">
<title>UsersModule</title>
<polygon fill="#8dd3c7" stroke="black" points="253.92,-122 250.92,-126 229.92,-126 226.92,-122 162.08,-122 162.08,-86 253.92,-86 253.92,-122"/>
<text text-anchor="middle" x="208" y="-99.8" font-family="Times,serif" font-size="14.00">UsersModule</text>
</g>
<!-- UsersModule&#45;&gt;AppModule -->
<g id="edge6" class="edge">
<title>UsersModule&#45;&gt;AppModule</title>
<path fill="none" stroke="black" d="M208,-122.11C208,-141.34 208,-169 208,-169 208,-169 392.08,-169 392.08,-169"/>
<polygon fill="black" stroke="black" points="392.08,-172.5 402.08,-169 392.08,-165.5 392.08,-172.5"/>
</g>
<!-- AppService -->
<g id="node8" class="node">
<title>AppService</title>
<ellipse fill="#fdb462" stroke="black" cx="81" cy="-104" rx="56.74" ry="18"/>
<text text-anchor="middle" x="81" y="-99.8" font-family="Times,serif" font-size="14.00">AppService</text>
</g>
<!-- AppService&#45;&gt;AppModule -->
<g id="edge7" class="edge">
<title>AppService&#45;&gt;AppModule</title>
<path fill="none" stroke="black" d="M81,-122.29C81,-144.21 81,-178 81,-178 81,-178 392,-178 392,-178"/>
<polygon fill="black" stroke="black" points="392,-181.5 402,-178 392,-174.5 392,-181.5"/>
</g>
</g>
</svg>
