<?xml version="1.0" encoding="UTF-8" standalone="no"?>
<!DOCTYPE svg PUBLIC "-//W3C//DTD SVG 1.1//EN"
 "http://www.w3.org/Graphics/SVG/1.1/DTD/svg11.dtd">
<!-- Generated by graphviz version 2.44.0 (20200408.0750)
 -->
<!-- Title: dependencies Pages: 1 -->
<svg width="504pt" height="284pt"
 viewBox="0.00 0.00 504.00 284.00" xmlns="http://www.w3.org/2000/svg" xmlns:xlink="http://www.w3.org/1999/xlink">
<g id="graph0" class="graph" transform="scale(1 1) rotate(0) translate(4 280)">
<title>dependencies</title>
<polygon fill="white" stroke="transparent" points="-4,4 -4,-280 500,-280 500,4 -4,4"/>
<text text-anchor="start" x="227.01" y="-42.4" font-family="sans-serif" font-weight="bold" font-size="14.00">Legend</text>
<polygon fill="#ffffb3" stroke="transparent" points="14,-10 14,-30 34,-30 34,-10 14,-10"/>
<text text-anchor="start" x="37.63" y="-15.4" font-family="sans-serif" font-size="14.00"> &#160;Declarations</text>
<polygon fill="#8dd3c7" stroke="transparent" points="127,-10 127,-30 147,-30 147,-10 127,-10"/>
<text text-anchor="start" x="150.73" y="-15.4" font-family="sans-serif" font-size="14.00"> &#160;Module</text>
<polygon fill="#80b1d3" stroke="transparent" points="213,-10 213,-30 233,-30 233,-10 213,-10"/>
<text text-anchor="start" x="236.78" y="-15.4" font-family="sans-serif" font-size="14.00"> &#160;Bootstrap</text>
<polygon fill="#fdb462" stroke="transparent" points="310,-10 310,-30 330,-30 330,-10 310,-10"/>
<text text-anchor="start" x="333.67" y="-15.4" font-family="sans-serif" font-size="14.00"> &#160;Providers</text>
<polygon fill="#fb8072" stroke="transparent" points="406,-10 406,-30 426,-30 426,-10 406,-10"/>
<text text-anchor="start" x="429.73" y="-15.4" font-family="sans-serif" font-size="14.00"> &#160;Exports</text>
<g id="clust1" class="cluster">
<title>cluster_PronosticsModule</title>
<polygon fill="none" stroke="black" stroke-dasharray="1,5" points="94,-70 94,-268 402,-268 402,-70 94,-70"/>
</g>
<g id="clust4" class="cluster">
<title>cluster_PronosticsModule_exports</title>
<polygon fill="none" stroke="black" points="170,-208 170,-260 306,-260 306,-208 170,-208"/>
</g>
<g id="clust6" class="cluster">
<title>cluster_PronosticsModule_providers</title>
<polygon fill="none" stroke="black" points="218,-78 218,-130 394,-130 394,-78 218,-78"/>
</g>
<g id="clust3" class="cluster">
<title>cluster_PronosticsModule_imports</title>
<polygon fill="none" stroke="black" points="102,-78 102,-130 210,-130 210,-78 102,-78"/>
</g>
<!-- UsersModule -->
<g id="node1" class="node">
<title>UsersModule</title>
<polygon fill="#8dd3c7" stroke="black" points="201.92,-122 198.92,-126 177.92,-126 174.92,-122 110.08,-122 110.08,-86 201.92,-86 201.92,-122"/>
<text text-anchor="middle" x="156" y="-99.8" font-family="Times,serif" font-size="14.00">UsersModule</text>
</g>
<!-- PronosticsModule -->
<g id="node2" class="node">
<title>PronosticsModule</title>
<polygon fill="#8dd3c7" stroke="black" points="296.88,-187 293.88,-191 272.88,-191 269.88,-187 179.12,-187 179.12,-151 296.88,-151 296.88,-187"/>
<text text-anchor="middle" x="238" y="-164.8" font-family="Times,serif" font-size="14.00">PronosticsModule</text>
</g>
<!-- UsersModule&#45;&gt;PronosticsModule -->
<g id="edge1" class="edge">
<title>UsersModule&#45;&gt;PronosticsModule</title>
<path fill="none" stroke="black" d="M190.39,-122.11C190.39,-122.11 190.39,-140.99 190.39,-140.99"/>
<polygon fill="black" stroke="black" points="186.89,-140.99 190.39,-150.99 193.89,-140.99 186.89,-140.99"/>
</g>
<!-- PronosticsService  -->
<g id="node3" class="node">
<title>PronosticsService </title>
<polygon fill="#fb8072" stroke="black" points="297.81,-252 178.19,-252 178.19,-216 297.81,-216 297.81,-252"/>
<text text-anchor="middle" x="238" y="-229.8" font-family="Times,serif" font-size="14.00">PronosticsService </text>
</g>
<!-- PronosticsModule&#45;&gt;PronosticsService  -->
<g id="edge2" class="edge">
<title>PronosticsModule&#45;&gt;PronosticsService </title>
<path fill="none" stroke="black" stroke-dasharray="5,2" d="M238,-187.11C238,-187.11 238,-205.99 238,-205.99"/>
<polygon fill="black" stroke="black" points="234.5,-205.99 238,-215.99 241.5,-205.99 234.5,-205.99"/>
</g>
<!-- PronosticsService -->
<g id="node4" class="node">
<title>PronosticsService</title>
<ellipse fill="#fdb462" stroke="black" cx="306" cy="-104" rx="80.45" ry="18"/>
<text text-anchor="middle" x="306" y="-99.8" font-family="Times,serif" font-size="14.00">PronosticsService</text>
</g>
<!-- PronosticsService&#45;&gt;PronosticsModule -->
<g id="edge3" class="edge">
<title>PronosticsService&#45;&gt;PronosticsModule</title>
<path fill="none" stroke="black" d="M261.36,-119.08C261.36,-119.08 261.36,-140.76 261.36,-140.76"/>
<polygon fill="black" stroke="black" points="257.86,-140.76 261.36,-150.76 264.86,-140.76 257.86,-140.76"/>
</g>
</g>
</svg>
