<?xml version="1.0" encoding="UTF-8" standalone="no"?>
<!DOCTYPE svg PUBLIC "-//W3C//DTD SVG 1.1//EN"
 "http://www.w3.org/Graphics/SVG/1.1/DTD/svg11.dtd">
<!-- Generated by graphviz version 2.44.0 (20200408.0750)
 -->
<!-- Title: dependencies Pages: 1 -->
<svg width="504pt" height="211pt"
 viewBox="0.00 0.00 504.00 211.00" xmlns="http://www.w3.org/2000/svg" xmlns:xlink="http://www.w3.org/1999/xlink">
<g id="graph0" class="graph" transform="scale(1 1) rotate(0) translate(4 207)">
<title>dependencies</title>
<polygon fill="white" stroke="transparent" points="-4,4 -4,-207 500,-207 500,4 -4,4"/>
<text text-anchor="start" x="227.01" y="-42.4" font-family="sans-serif" font-weight="bold" font-size="14.00">Legend</text>
<polygon fill="#ffffb3" stroke="transparent" points="14,-10 14,-30 34,-30 34,-10 14,-10"/>
<text text-anchor="start" x="37.63" y="-15.4" font-family="sans-serif" font-size="14.00"> &#160;Declarations</text>
<polygon fill="#8dd3c7" stroke="transparent" points="127,-10 127,-30 147,-30 147,-10 127,-10"/>
<text text-anchor="start" x="150.73" y="-15.4" font-family="sans-serif" font-size="14.00"> &#160;Module</text>
<polygon fill="#80b1d3" stroke="transparent" points="213,-10 213,-30 233,-30 233,-10 213,-10"/>
<text text-anchor="start" x="236.78" y="-15.4" font-family="sans-serif" font-size="14.00"> &#160;Bootstrap</text>
<polygon fill="#fdb462" stroke="transparent" points="310,-10 310,-30 330,-30 330,-10 310,-10"/>
<text text-anchor="start" x="333.67" y="-15.4" font-family="sans-serif" font-size="14.00"> &#160;Providers</text>
<polygon fill="#fb8072" stroke="transparent" points="406,-10 406,-30 426,-30 426,-10 406,-10"/>
<text text-anchor="start" x="429.73" y="-15.4" font-family="sans-serif" font-size="14.00"> &#160;Exports</text>
<g id="clust1" class="cluster">
<title>cluster_CommentariesModule</title>
<polygon fill="none" stroke="black" stroke-dasharray="1,5" points="78,-70 78,-195 418,-195 418,-70 78,-70"/>
</g>
<g id="clust6" class="cluster">
<title>cluster_CommentariesModule_providers</title>
<polygon fill="none" stroke="black" points="202,-78 202,-130 410,-130 410,-78 202,-78"/>
</g>
<g id="clust3" class="cluster">
<title>cluster_CommentariesModule_imports</title>
<polygon fill="none" stroke="black" points="86,-78 86,-130 194,-130 194,-78 86,-78"/>
</g>
<!-- UsersModule -->
<g id="node1" class="node">
<title>UsersModule</title>
<polygon fill="#8dd3c7" stroke="black" points="185.92,-122 182.92,-126 161.92,-126 158.92,-122 94.08,-122 94.08,-86 185.92,-86 185.92,-122"/>
<text text-anchor="middle" x="140" y="-99.8" font-family="Times,serif" font-size="14.00">UsersModule</text>
</g>
<!-- CommentariesModule -->
<g id="node2" class="node">
<title>CommentariesModule</title>
<polygon fill="#8dd3c7" stroke="black" points="301.7,-187 298.7,-191 277.7,-191 274.7,-187 160.3,-187 160.3,-151 301.7,-151 301.7,-187"/>
<text text-anchor="middle" x="231" y="-164.8" font-family="Times,serif" font-size="14.00">CommentariesModule</text>
</g>
<!-- UsersModule&#45;&gt;CommentariesModule -->
<g id="edge1" class="edge">
<title>UsersModule&#45;&gt;CommentariesModule</title>
<path fill="none" stroke="black" d="M173.06,-122.11C173.06,-122.11 173.06,-140.99 173.06,-140.99"/>
<polygon fill="black" stroke="black" points="169.56,-140.99 173.06,-150.99 176.56,-140.99 169.56,-140.99"/>
</g>
<!-- CommentariesService -->
<g id="node3" class="node">
<title>CommentariesService</title>
<ellipse fill="#fdb462" stroke="black" cx="306" cy="-104" rx="96.12" ry="18"/>
<text text-anchor="middle" x="306" y="-99.8" font-family="Times,serif" font-size="14.00">CommentariesService</text>
</g>
<!-- CommentariesService&#45;&gt;CommentariesModule -->
<g id="edge2" class="edge">
<title>CommentariesService&#45;&gt;CommentariesModule</title>
<path fill="none" stroke="black" d="M255.64,-119.4C255.64,-119.4 255.64,-140.94 255.64,-140.94"/>
<polygon fill="black" stroke="black" points="252.14,-140.94 255.64,-150.94 259.14,-140.94 252.14,-140.94"/>
</g>
</g>
</svg>
