<?xml version="1.0" encoding="UTF-8" standalone="no"?>
<!DOCTYPE svg PUBLIC "-//W3C//DTD SVG 1.1//EN"
 "http://www.w3.org/Graphics/SVG/1.1/DTD/svg11.dtd">
<!-- Generated by graphviz version 2.44.0 (20200408.0750)
 -->
<!-- Title: dependencies Pages: 1 -->
<svg width="504pt" height="284pt"
 viewBox="0.00 0.00 504.00 284.00" xmlns="http://www.w3.org/2000/svg" xmlns:xlink="http://www.w3.org/1999/xlink">
<g id="graph0" class="graph" transform="scale(1 1) rotate(0) translate(4 280)">
<title>dependencies</title>
<polygon fill="white" stroke="transparent" points="-4,4 -4,-280 500,-280 500,4 -4,4"/>
<text text-anchor="start" x="227.01" y="-42.4" font-family="sans-serif" font-weight="bold" font-size="14.00">Legend</text>
<polygon fill="#ffffb3" stroke="transparent" points="14,-10 14,-30 34,-30 34,-10 14,-10"/>
<text text-anchor="start" x="37.63" y="-15.4" font-family="sans-serif" font-size="14.00"> &#160;Declarations</text>
<polygon fill="#8dd3c7" stroke="transparent" points="127,-10 127,-30 147,-30 147,-10 127,-10"/>
<text text-anchor="start" x="150.73" y="-15.4" font-family="sans-serif" font-size="14.00"> &#160;Module</text>
<polygon fill="#80b1d3" stroke="transparent" points="213,-10 213,-30 233,-30 233,-10 213,-10"/>
<text text-anchor="start" x="236.78" y="-15.4" font-family="sans-serif" font-size="14.00"> &#160;Bootstrap</text>
<polygon fill="#fdb462" stroke="transparent" points="310,-10 310,-30 330,-30 330,-10 310,-10"/>
<text text-anchor="start" x="333.67" y="-15.4" font-family="sans-serif" font-size="14.00"> &#160;Providers</text>
<polygon fill="#fb8072" stroke="transparent" points="406,-10 406,-30 426,-30 426,-10 406,-10"/>
<text text-anchor="start" x="429.73" y="-15.4" font-family="sans-serif" font-size="14.00"> &#160;Exports</text>
<g id="clust1" class="cluster">
<title>cluster_NewsModule</title>
<polygon fill="none" stroke="black" stroke-dasharray="1,5" points="112,-70 112,-268 384,-268 384,-70 112,-70"/>
</g>
<g id="clust4" class="cluster">
<title>cluster_NewsModule_exports</title>
<polygon fill="none" stroke="black" points="200,-208 200,-260 310,-260 310,-208 200,-208"/>
</g>
<g id="clust3" class="cluster">
<title>cluster_NewsModule_imports</title>
<polygon fill="none" stroke="black" points="268,-78 268,-130 376,-130 376,-78 268,-78"/>
</g>
<g id="clust6" class="cluster">
<title>cluster_NewsModule_providers</title>
<polygon fill="none" stroke="black" points="120,-78 120,-130 260,-130 260,-78 120,-78"/>
</g>
<!-- UsersModule -->
<g id="node1" class="node">
<title>UsersModule</title>
<polygon fill="#8dd3c7" stroke="black" points="367.92,-122 364.92,-126 343.92,-126 340.92,-122 276.08,-122 276.08,-86 367.92,-86 367.92,-122"/>
<text text-anchor="middle" x="322" y="-99.8" font-family="Times,serif" font-size="14.00">UsersModule</text>
</g>
<!-- NewsModule -->
<g id="node2" class="node">
<title>NewsModule</title>
<polygon fill="#8dd3c7" stroke="black" points="300.92,-187 297.92,-191 276.92,-191 273.92,-187 209.08,-187 209.08,-151 300.92,-151 300.92,-187"/>
<text text-anchor="middle" x="255" y="-164.8" font-family="Times,serif" font-size="14.00">NewsModule</text>
</g>
<!-- UsersModule&#45;&gt;NewsModule -->
<g id="edge1" class="edge">
<title>UsersModule&#45;&gt;NewsModule</title>
<path fill="none" stroke="black" d="M288.5,-122.11C288.5,-122.11 288.5,-140.99 288.5,-140.99"/>
<polygon fill="black" stroke="black" points="285,-140.99 288.5,-150.99 292,-140.99 285,-140.99"/>
</g>
<!-- NewsService  -->
<g id="node3" class="node">
<title>NewsService </title>
<polygon fill="#fb8072" stroke="black" points="301.85,-252 208.15,-252 208.15,-216 301.85,-216 301.85,-252"/>
<text text-anchor="middle" x="255" y="-229.8" font-family="Times,serif" font-size="14.00">NewsService </text>
</g>
<!-- NewsModule&#45;&gt;NewsService  -->
<g id="edge2" class="edge">
<title>NewsModule&#45;&gt;NewsService </title>
<path fill="none" stroke="black" stroke-dasharray="5,2" d="M255,-187.11C255,-187.11 255,-205.99 255,-205.99"/>
<polygon fill="black" stroke="black" points="251.5,-205.99 255,-215.99 258.5,-205.99 251.5,-205.99"/>
</g>
<!-- NewsService -->
<g id="node4" class="node">
<title>NewsService</title>
<ellipse fill="#fdb462" stroke="black" cx="190" cy="-104" rx="61.95" ry="18"/>
<text text-anchor="middle" x="190" y="-99.8" font-family="Times,serif" font-size="14.00">NewsService</text>
</g>
<!-- NewsService&#45;&gt;NewsModule -->
<g id="edge3" class="edge">
<title>NewsService&#45;&gt;NewsModule</title>
<path fill="none" stroke="black" d="M230.63,-117.78C230.63,-117.78 230.63,-140.55 230.63,-140.55"/>
<polygon fill="black" stroke="black" points="227.13,-140.55 230.63,-150.55 234.13,-140.55 227.13,-140.55"/>
</g>
</g>
</svg>
